<?xml version="1.0" standalone="no"?>
<!DOCTYPE svg PUBLIC "-//W3C//DTD SVG 1.1//EN" "http://www.w3.org/Graphics/SVG/1.1/DTD/svg11.dtd" >
<svg xmlns="http://www.w3.org/2000/svg">
<metadata>Generated by IcoMoon</metadata>
<defs>
<font id="ionicons" horiz-adv-x="1024">
<font-face units-per-em="1024" ascent="960" descent="-64" />
<missing-glyph horiz-adv-x="1024" />
<glyph unicode="&#x20;" horiz-adv-x="512" d="" />
<glyph unicode="&#xf141;" glyph-name="heart" horiz-adv-x="832" d="M764 768c92-94 92-248 0-342l-348-362-348 362c-92 94-92 248 0 342 80 84 214 84 294 0l54-56 56 56c80 84 212 84 292 0z" />
<glyph unicode="&#xf22c;" glyph-name="social-dribbble-outline" horiz-adv-x="768" d="M384 832c212 0 384-172 384-384s-172-384-384-384-384 172-384 384 172 384 384 384zM628 656c-34-50-94-94-170-128 10-20 18-40 26-62 66 6 150 8 220 4-4 70-32 136-76 186zM384 768c-28 0-52-4-78-10 46-46 86-106 124-174 68 28 124 66 158 110-56 46-126 74-204 74zM240 732c-82-42-142-116-166-206h50c88 0 170 12 242 34-38 68-80 126-126 172zM64 464v-16c0-80 30-156 80-212 48 90 134 166 244 212 8 4 16 6 28 8-6 16-12 32-20 48-80-26-176-40-276-42-18 0-38 2-56 2zM384 128c40 0 78 6 114 20-6 50-16 106-30 158-8 34-20 66-32 98-14-4-26-8-34-12-96-44-172-112-214-196 54-42 122-68 196-68zM556 180c80 52 136 134 146 232-60 4-136 6-198 0 8-24 18-50 24-76 14-54 22-104 28-156z" />
<glyph unicode="&#xf22d;" glyph-name="social-dribbble" horiz-adv-x="768" d="M384 832c212 0 384-172 384-384s-172-384-384-384-384 172-384 384 172 384 384 384zM384 128c176 0 320 144 320 320s-144 320-320 320-320-144-320-320 144-320 320-320zM484 466c-8 22-16 42-26 62 50 22 94 48 126 78 30-38 52-84 56-134-52 0-110-2-156-6zM542 648c-30-24-68-46-112-64-24 44-48 82-76 118 10 2 20 2 30 2 60 0 114-22 158-56zM284 684c30-36 56-78 82-124-68-20-144-32-226-34 22 72 76 130 144 158zM638 416c-8-66-42-126-92-166-6 28-10 56-18 86-6 26-16 52-24 76 42 4 90 6 134 4zM388 448c-86-36-158-92-208-156-32 44-52 98-52 156v14c98 2 190 16 268 42 8-16 14-32 20-48-12-2-20-4-28-8zM438 404c12-32 22-64 30-98 8-30 14-62 20-92-32-14-68-22-104-22-62 0-118 22-162 58 44 60 106 108 180 142 8 4 22 8 36 12z" />
<glyph unicode="&#xf230;" glyph-name="social-facebook-outline" horiz-adv-x="384" d="M256 576h128l-16-128h-112v-384h-166v384h-90v128h90v86c0 108 46 170 182 170h112v-128h-68c-54 0-60-18-60-52v-76zM340 480l8 64h-124v108c0 20 2 42 18 60 20 22 50 24 74 24h36v64h-80c-56 0-98-12-120-36-20-22-30-54-30-102v-118h-90v-64h90v-384h102v384h116z" />
<glyph unicode="&#xf231;" glyph-name="social-facebook" horiz-adv-x="384" d="M256 576h128l-16-128h-112v-384h-166v384h-90v128h90v86c0 108 46 170 182 170h112v-128h-68c-54 0-60-18-60-52v-76z" />
<glyph unicode="&#xf234;" glyph-name="social-googleplus-outline" d="M384 796c24-20 72-60 72-136 0-74-42-110-86-144-14-14-30-26-30-48s16-36 28-44l36-28c46-38 86-72 86-142 0-94-94-190-270-190-148 0-220 70-220 144 0 36 20 88 80 124 64 38 150 42 196 46-14 18-32 36-32 68 0 18 6 28 10 40-12 0-22-2-32-2-108 0-170 80-170 158 0 46 20 96 64 134 58 48 128 56 184 56h212l-66-36h-62zM310 348c-8 0-14 2-24 2s-64-2-108-16c-22-8-88-32-88-104s72-124 182-124c98 0 150 48 150 110 0 52-34 78-112 132zM340 540c24 24 26 56 26 74 0 72-44 184-130 184-26 0-56-12-72-32-18-22-22-48-22-74 0-68 40-180 128-180 26 0 54 12 70 28zM896 676v-36h-156v-162h-36v162h-160v36h160v156h36v-156h156z" />
<glyph unicode="&#xf235;" glyph-name="social-googleplus" d="M420 408c44-36 90-72 90-146 0-98-94-198-278-198-160 0-232 78-232 154 0 20 6 84 84 130 54 32 122 42 170 46-8 14-16 30-16 52 0 8 0 14 2 20h-8c-38 0-92 8-134 52-30 30-48 72-48 114 0 52 26 106 70 142v0c64 50 138 58 188 58h268l-120-66h-26c22-26 46-62 46-116 0-80-50-118-90-148v-2c-12-12-22-20-22-34 0-12 8-20 20-30v0zM170 680c0-26 8-66 28-102 14-24 42-54 82-54 20 0 42 8 56 22 20 20 20 50 20 60 0 36-12 74-30 106-16 26-40 56-80 56-22 0-46-10-58-26-12-14-18-36-18-62zM412 224c0 40-26 62-100 112-6 0-8 2-16 2-12 0-62-4-100-16-32-12-76-32-76-84 0-62 64-102 160-102 82 0 132 34 132 88zM740 676h156v-68h-156v-162h-68v162h-160v68h160v156h68v-156z" />
<glyph unicode="&#xf238;" glyph-name="social-linkedin-outline" horiz-adv-x="768" d="M238 192v0h-110v342h110v-342zM186 586v0 0c-36 0-58 26-58 58 0 34 24 60 60 60s58-26 58-60c0-32-24-58-60-58zM514 542c72 0 126-48 126-150v-200h-110v188c0 44-16 74-56 74-30 0-48-20-56-40-4-8-4-18-4-28v-194h-110v342h110v-48c16 22 42 56 100 56zM706 832c36 0 62-26 62-60v-642c0-34-26-66-62-66h-640c-36 0-66 32-66 66v642c0 34 30 60 66 60h640zM700 128c2 0 4 2 4 4v632c0 2-2 4-4 4h-632s-4-2-4-4v-630s2-6 6-6h630z" />
<glyph unicode="&#xf239;" glyph-name="social-linkedin" horiz-adv-x="768" d="M706 832c36 0 62-26 62-60v-642c0-34-26-66-62-66h-640c-36 0-66 32-66 66v642c0 34 30 60 66 60h640zM238 192v342h-110v-342h110zM186 586c36 0 60 26 60 58 0 34-22 60-58 60s-60-26-60-60c0-32 22-58 58-58v0zM640 192v200c0 102-54 150-126 150-58 0-84-34-100-56v48h-110v-342h110v194c0 10 0 20 4 28 8 20 26 40 56 40 40 0 56-30 56-74v-188h110z" />
<glyph unicode="&#xf23e;" glyph-name="social-skype-outline" horiz-adv-x="768" d="M212 768c-82 0-148-66-148-146 0-26 8-50 20-72l12-22-4-24c-4-20-6-40-6-60 0-80 32-154 88-210s134-88 214-88c18 0 38 2 56 6l22 4 18-10c22-12 48-18 72-18 82 0 148 66 148 146 0 22-6 44-16 64l-10 20 6 22c4 20 6 42 6 64 0 80-32 154-88 210s-134 86-214 86c-18 0-36 0-52-4l-24-4-20 14c-24 14-52 22-80 22zM212 832v0c42 0 80-12 112-32 20 4 42 4 64 4 202 0 366-160 366-360 0-26-2-54-8-78 14-28 22-58 22-92 0-116-94-210-212-210-36 0-70 8-100 24-22-4-44-6-68-6-202 0-366 162-366 362 0 24 4 48 8 72-18 32-30 68-30 106 0 116 94 210 212 210zM576 272c-16-24-42-42-74-56s-72-20-116-20c-52 0-96 10-130 28-24 14-44 30-60 52s-24 44-24 66c0 14 6 24 16 34s22 14 38 14c12 0 24-4 32-12s14-16 20-30 14-26 22-36 16-18 30-24 32-10 54-10c30 0 56 8 74 20s26 26 26 44c0 14-4 26-14 34-10 10-22 18-38 22-16 6-40 10-68 16-38 8-70 18-96 28-26 12-48 26-64 46s-22 44-22 72 8 50 24 72c16 20 40 38 72 50 30 12 68 16 108 16 32 0 60-2 84-10s46-18 62-30 28-26 36-40 10-28 10-42c0-12-4-24-14-34s-22-16-38-16c-14 0-24 4-32 10-6 6-14 14-22 28-10 16-20 30-32 40s-34 16-62 16c-26 0-46-6-62-16s-24-22-24-36c0-8 4-14 8-20 6-6 12-12 22-16s20-10 30-12 26-6 50-12c30-6 56-12 80-20s46-16 64-28 30-26 40-44 16-40 16-64c0-30-10-56-26-80z" />
<glyph unicode="&#xf23f;" glyph-name="social-skype" horiz-adv-x="768" d="M746 366c14-28 22-58 22-92 0-116-94-210-212-210-36 0-70 8-100 24-22-4-44-6-68-6-202 0-366 162-366 362 0 24 4 48 8 72-18 32-30 68-30 106 0 116 94 210 212 210 42 0 82-12 114-32 20 4 40 4 62 4 202 0 366-160 366-360 0-26-2-54-8-78zM576 272c18 24 24 50 24 80 0 24-4 46-14 64s-24 32-42 44-38 20-62 28-52 14-82 20c-24 6-40 10-50 12s-20 8-30 12-14 10-20 16c-4 6-8 12-8 20 0 14 6 26 22 36s38 14 64 14c28 0 50-4 62-14s22-24 32-40c8-14 16-22 22-28 8-6 18-10 32-10 16 0 26 6 36 16s16 22 16 34c0 14-4 28-12 42s-20 28-36 40-36 22-60 30-54 10-86 10c-40 0-76-4-106-16-32-12-56-30-72-50-16-22-24-44-24-72s6-52 22-72 38-34 64-46c26-10 58-20 96-28 28-6 52-10 68-16 16-4 28-12 38-22 10-8 14-20 14-34 0-18-8-34-26-46s-44-18-74-18c-22 0-40 4-54 10s-22 12-30 22-16 24-22 38-12 22-20 30-20 12-32 12c-16 0-28-4-38-14s-16-20-16-34c0-22 8-44 24-66s36-38 60-52c34-18 78-28 130-28 44 0 84 6 116 20s58 32 74 56z" />
<glyph unicode="&#xf240;" glyph-name="social-tumblr-outline" horiz-adv-x="512" d="M386 168c42 0 84 12 126 40v-130c-36-16-68-30-96-36s-56-10-90-10c-38 0-70 4-100 14-28 10-56 24-76 42s-34 36-42 56-12 50-12 88v280h-96v116c32 10 60 28 84 48s38 42 52 70 22 74 28 118h124v-224h192v-128h-192v-202c0-48 2-80 8-94 4-14 14-24 28-32 18-12 38-16 62-16zM480 98v58c-30-12-62-20-94-20-30 0-56 6-80 20-20 12-34 30-42 50-4 12-8 34-8 104v234h192v64h-192v224h-64c-4-32-14-72-28-100-16-32-34-58-60-80-22-18-46-34-72-46v-62h96v-312c0-42 4-64 8-76 6-16 20-30 36-44 18-16 38-28 62-36 26-8 58-12 92-12 32 0 56 4 82 10 22 4 46 12 72 24z" />
<glyph unicode="&#xf241;" glyph-name="social-tumblr" horiz-adv-x="512" d="M386 168c42 0 84 12 126 40v-130c-36-16-68-30-96-36s-56-10-90-10c-38 0-70 4-100 14-28 10-56 24-76 42s-34 36-42 56-12 50-12 88v280h-96v116c32 10 60 28 84 48s38 42 52 70 22 74 28 118h124v-224h192v-128h-192v-202c0-48 2-80 8-94 4-14 14-24 28-32 18-12 38-16 62-16z" />
<glyph unicode="&#xf242;" glyph-name="social-twitter-outline" horiz-adv-x="944" d="M944 740c-26-40-58-72-96-100v-24c0-256-196-552-552-552-110 0-210 32-296 88 16-2 30-4 46-4 90 0 174 32 240 84-84 2-156 58-180 134 12-2 24-4 36-4 18 0 36 4 52 8-88 18-156 96-156 190v2c26-14 56-24 88-24-52 34-86 94-86 162 0 36 10 68 26 96 96-118 238-194 398-202-4 14-4 28-4 44 0 108 86 194 194 194 56 0 104-24 140-62 44 8 86 26 124 48-14-46-46-84-86-108 40 4 78 14 112 30zM828 666c6 4 16 12 22 16-4 0-22-4-38-2s-42 10-42 10 28 26 36 34l22 22c-8-2-20-4-28-6l-16-4-12 12c-30 32-74 52-118 52-90 0-162-74-162-162 0-12 2-24 4-36l10-42-44 2c-84 4-162 26-236 64-56 28-106 68-150 112-2-12-4-26-4-38 0-54 28-106 72-136 0 0 66-46 92-58-48-4-112 0-112 0-16 0-32 2-48 6 16-56 64-100 124-112l122-20-122-42c-14-4-28-6-42-6 30-40 76-68 128-68l90-2-70-56c-36-28-76-50-120-66-20-6-38-12-58-16 54-18 110-28 168-28 80 0 156 16 224 48 62 28 116 68 162 120 44 48 76 106 100 168 22 60 34 124 34 184v24l-2 16z" />
<glyph unicode="&#xf243;" glyph-name="social-twitter" horiz-adv-x="944" d="M944 740c-26-40-58-72-96-100v-24c0-256-196-552-552-552-110 0-210 32-296 88 16-2 30-4 46-4 90 0 174 32 240 84-84 2-156 58-180 134 12-2 24-4 36-4 18 0 36 4 52 8-88 18-156 96-156 190v2c26-14 56-24 88-24-52 34-86 94-86 162 0 36 10 68 26 96 96-118 238-194 398-202-4 14-4 28-4 44 0 108 86 194 194 194 56 0 104-24 140-62 44 8 86 26 124 48-14-46-46-84-86-108 40 4 78 14 112 30z" />
<glyph unicode="&#xf244;" glyph-name="social-vimeo-outline" d="M890 732c14-66 2-132-26-194s-62-118-102-174c-52-72-104-142-170-202-38-36-82-70-132-88-20-8-38-10-54-10-34 0-62 18-88 54-28 38-44 80-56 126-24 90-50 180-76 268-8 24-18 44-30 66-6 10-16 20-24 28-4 4-10 6-16 6s-12-2-18-6c-20-12-56-36-56-36l-42 54c52 48 164 142 164 142 22 18 66 50 96 54h16c36 0 64-14 84-44 22-34 30-74 36-114 14-82 24-164 48-244 6-20 14-40 24-58 8-14 18-20 28-20 8 0 14 4 22 10s14 12 20 20c40 48 74 104 96 162 6 18 6 34 6 54 0 26-20 50-50 52h-14c-22 0-40-4-64-14 12 48 48 124 108 168 40 28 90 40 134 40 20 0 40-4 54-8 46-16 72-46 82-92zM836 552c26 60 34 118 22 174-8 38-26 56-60 68-12 4-28 6-44 6-42 0-84-12-114-34-32-24-58-60-76-96h28c46-2 78-38 80-82 0-20 0-44-8-68-22-58-58-116-102-170-8-8-14-18-24-26-14-12-30-16-44-16-16 0-36 6-54 36-14 22-22 44-28 64-20 62-28 128-38 190-4 20-6 38-10 58-6 34-12 72-32 102-14 20-32 30-56 30h-12c-16-2-50-22-80-46-4-4-86-74-140-122l4-6c10 8 24 14 32 20 12 6 24 10 36 10 14 0 26-6 36-14 16-14 26-24 32-36 12-22 24-48 32-74 26-88 52-176 76-266 10-38 26-82 52-118s46-40 62-40c12 0 26 2 42 8 46 16 86 50 122 82 64 58 114 126 166 198v0c42 56 74 110 100 168z" />
<glyph unicode="&#xf245;" glyph-name="social-vimeo" d="M890 732c14-66 2-132-26-194s-62-118-102-174c-52-72-104-142-170-202-38-36-82-70-132-88-62-22-104-10-142 44-28 38-44 80-56 126-24 90-50 180-76 268-8 24-18 44-30 66-6 10-16 20-24 28-10 8-22 6-34 0-20-12-56-36-56-36l-42 54c52 48 164 142 164 142 22 18 66 50 96 54 42 6 76-8 100-44 22-34 30-74 36-114 14-82 22-164 46-244 6-20 16-40 26-58 14-22 30-26 50-10 8 6 14 12 20 20 40 48 74 104 96 162 6 18 6 34 6 54 0 26-20 50-50 52s-48-2-78-14c12 48 48 124 108 168 58 42 142 48 188 32s72-46 82-92z" />
<glyph unicode="&#xf248;" glyph-name="social-wordpress-outline" horiz-adv-x="768" d="M384 832c212 0 384-172 384-384 0-18-2-36-4-52-24-170-158-306-330-328-16-2-34-4-50-4-212 0-384 172-384 384s172 384 384 384zM38 448c0-136 80-254 196-310l-166 450c-20-42-30-90-30-140zM428 106c24 4 48 8 70 16 0 2-2 4-2 6l-106 290-66-192-38-110c30-10 64-14 98-14 16 0 30 2 44 4zM432 610l124-372 34 116c18 44 26 82 26 112 0 42-14 70-28 94-18 28-34 54-34 82 0 32 24 60 58 60h4c-62 56-142 90-232 90-120 0-226-60-288-154 8 0 16-2 22-2 36 0 92 6 92 6 18 2 20-28 2-30 0 0-20-2-40-2l126-374 76 226-54 148c-18 0-36 2-36 2-18 0-16 32 2 30 0 0 56-6 90-6 36 0 92 6 92 6 18 2 22-28 4-30 0 0-20-2-40-2zM558 150c90 52 154 142 168 250 2 16 4 32 4 48 0 60-16 116-44 166 2-12 2-24 2-36 0-36-6-74-26-124l-78-226z" />
<glyph unicode="&#xf249;" glyph-name="social-wordpress" horiz-adv-x="768" d="M390 418l106-292c0-2 12-26 18-38-6-2-10-4-16-6v0c-20-6-42-12-64-14-16-2-34-4-50-4-34 0-68 4-100 12v0c-4 0-6 4-10 4l50 146zM34 600c12 0 14-2 30-2l186-510c-6 2-10 4-16 6-126 54-218 174-232 316-2 12-2 26-2 38 0 50 14 106 34 152zM732 610c22-48 36-104 36-162 0-18-2-36-4-52-18-130-100-240-214-294-4-2-6-2-10-4l44 130 78 226c20 50 26 90 26 124v38c-2 36-20 88-72 86h-4c-34 0-58-28-58-60 0-28 16-54 34-82 14-24 28-52 28-94 0-30-8-68-26-112l-34-116-124 372c20 0 40 2 40 2 18 2 14 32-4 30 0 0-56-6-92-6-34 0-90 6-90 6-18 2-20-30-2-30 0 0 18-2 36-2l54-148-76-226-126 374c20 0 40 4 40 4 18 2 16 30-2 28 0 0-56-4-92-4h-68c10 18 22 34 34 50 70 88 180 144 300 144 48 0 96-10 138-26 68-26 126-72 170-130 4-4 6-10 10-14 12-16 22-34 30-52z" />
<glyph unicode="&#xf24c;" glyph-name="social-youtube-outline" d="M530 768v0h-36c-130 0-236-4-336-8h-4c-46 0-84-44-84-98v-4c-4-68-6-140-6-210v0 0c0-70 2-140 6-208v-6c0-28 10-52 28-72 16-18 34-26 56-26h4c104-4 216-8 332-8h44c116 0 226 4 332 8h4c22 0 40 8 56 26 18 20 28 44 28 72v6c4 68 6 136 6 208v0 0c0 72-2 142-6 210v6c0 54-38 98-84 98h-4c-98 4-206 6-336 6zM530 832v0c116 0 230 0 340-6 82 0 148-72 148-162 4-72 6-144 6-216s-2-142-6-214c0-90-66-162-148-162-110-6-222-8-336-8h-44c-114 0-226 2-336 8-82 0-148 72-148 162-4 72-6 142-6 214s4 142 8 214c0 90 64 164 146 164 110 4 224 6 340 6h36zM414 252v394l290-198z" />
<glyph unicode="&#xf24d;" glyph-name="social-youtube" d="M1018 662c4-72 6-142 6-214s-2-142-6-214c0-90-66-162-148-162-116-6-236-8-358-8s-242 2-358 8c-82 0-148 72-148 162-4 72-6 142-6 214s4 142 8 214c0 90 64 162 146 162 110 6 224 8 340 8h36c116 0 230-2 340-8 82 0 148-72 148-162zM414 252l290 196-290 198v-394z" />
<glyph unicode="&#xf2b0;" glyph-name="social-pinterest-outline" d="M448 896c248 0 448-200 448-448s-200-448-448-448-448 200-448 448 200 448 448 448zM720 176c72 72 112 170 112 272s-40 200-112 272-170 112-272 112-200-40-272-112-112-170-112-272 40-200 112-272c28-28 62-50 96-68 2 12 4 20 6 32 8 36 58 244 58 244s-16 30-16 72c0 66 40 116 88 116 40 0 60-32 60-68 0-40-26-102-40-158-12-48 24-86 70-86 84 0 142 108 142 238 0 98-66 170-186 170-136 0-220-100-220-214 0-40 12-66 30-88 8-10 10-12 6-24-2-8-8-28-10-36-4-12-12-16-22-12-62 26-92 96-92 172 0 128 108 280 320 280 172 0 284-126 284-258 0-176-98-306-242-306-48 0-94 26-110 56 0 0-24-104-30-124-4-12-8-26-14-38 30-8 62-12 94-12 102 0 200 40 272 112z" />
<glyph unicode="&#xf2b1;" glyph-name="social-pinterest" d="M448 896c248 0 448-200 448-448s-200-448-448-448c-44 0-88 6-128 18 16 28 36 62 46 96 6 20 32 124 32 124 16-30 60-56 108-56 144 0 242 130 242 306 0 132-112 258-284 258-212 0-320-152-320-280 0-78 30-146 92-172 10-4 20 0 24 12 2 8 6 28 8 36 4 12 2 14-6 24-18 22-30 48-30 88 0 114 84 214 220 214 120 0 188-72 188-170 0-130-58-238-142-238-48 0-84 38-72 86 14 56 40 118 40 158 0 36-20 68-60 68-48 0-86-50-86-116 0-42 14-72 14-72s-50-208-58-244c-8-34-10-70-8-102-158 70-268 226-268 410 0 248 200 448 448 448z" />
<glyph unicode="&#xf34f;" glyph-name="social-google" horiz-adv-x="576" d="M420 408c44-36 90-72 90-146 0-98-96-198-280-198-160 0-230 78-230 154 0 20 6 84 84 130 54 32 122 40 170 44-8 14-16 32-16 54 0 8 0 14 2 20h-8c-38 0-92 8-134 52-30 30-48 72-48 114 0 52 26 106 70 142v0c64 50 140 58 190 58h266l-120-66h-26c22-26 46-62 46-116 0-80-50-118-90-148v-2c-12-12-22-20-22-34 0-12 8-20 20-30v0zM170 680c0-26 8-66 28-102 14-24 40-54 82-54 20 0 42 8 56 22 20 20 20 50 20 60 0 36-12 76-30 108-14 26-40 54-80 54-22 0-44-10-58-26-12-14-18-36-18-62zM412 224c0 40-26 62-100 112-6 0-8 2-16 2-12 0-64-4-102-16-32-12-74-32-74-84 0-62 64-102 160-102 82 0 132 34 132 88z" />
<glyph unicode="&#xf350;" glyph-name="social-instagram-outline" horiz-adv-x="768" d="M768 736v-578c0-52-44-94-96-94h-576c-52 0-96 42-96 94v578c0 52 44 96 96 96h576c52 0 96-44 96-96zM384 608c-88 0-160-72-160-160s72-160 160-160 160 72 160 160-72 160-160 160zM704 640v96c0 18-14 32-32 32h-96c-18 0-32-14-32-32v-96c0-18 14-32 32-32h96c18 0 32 14 32 32zM674 128c18 0 30 14 30 32v352h-104c6-20 8-42 8-64 0-60-22-116-64-158s-100-66-160-66-116 24-158 66-66 98-66 158c0 22 4 44 10 64h-106v-352c0-18 16-32 34-32h576z" />
<glyph unicode="&#xf351;" glyph-name="social-instagram" horiz-adv-x="768" d="M224 448c0 106 54 160 160 160s160-54 160-160-54-160-160-160-160 54-160 160zM226 606c-28-28-46-58-56-94h-170v224c0 26 8 50 28 68s44 28 70 28h576c26 0 48-10 66-28s28-42 28-68v-224h-168c-10 36-28 66-56 94-44 44-98 66-160 66s-114-22-158-66zM704 664v78c0 8-4 14-8 18s-10 8-18 8h-76c-8 0-14-4-18-8s-8-10-8-18v-78c0-8 4-14 8-18s10-6 18-6h76c8 0 14 2 18 6s8 10 8 18zM544 290c44 44 64 96 64 158h160v-288c0-26-10-48-28-68s-40-28-66-28h-576c-26 0-48 8-68 28s-30 42-30 68v288h162c0-62 20-114 64-158s96-66 158-66 116 22 160 66z" />
<glyph unicode="&#xf4ef;" glyph-name="social-whatsapp-outline" d="M356 652c8-22 30-78 32-84s4-12 0-20-6-12-12-18-12-14-18-18c-6-6-12-12-6-24s28-48 60-78c42-40 76-54 88-60s18-6 24 2 30 32 38 42 16 10 26 6 62-34 74-40 20-10 22-14 0-26-10-52-56-48-76-50-22-16-134 32-180 168-186 176-44 62-42 116 34 82 44 92 22 14 30 14h20s18 0 26-22zM456 832c-100 0-194-40-266-110-70-70-110-162-110-262 0-68 18-134 54-192l16-26-10-28-38-114 148 46 24-12c56-30 118-46 182-46 100 0 194 38 266 108 70 70 110 164 110 264s-40 192-110 262c-72 70-166 110-266 110zM456 896v0c242 0 440-194 440-436s-198-436-440-436c-78 0-148 20-212 54l-244-78 80 234c-40 66-64 144-64 226 0 242 198 436 440 436z" />
<glyph unicode="&#xf4f0;" glyph-name="social-whatsapp" d="M456 896c242 0 440-194 440-436s-198-436-440-436c-78 0-148 20-212 54l-244-78 80 234c-40 66-64 144-64 226 0 242 198 436 440 436zM674 294c10 26 12 48 10 52s-10 8-22 14-64 36-74 40-18 4-26-6-32-34-38-42-12-8-24-2-46 20-88 60c-32 30-54 66-60 78s0 18 6 24c6 4 12 12 18 18s8 10 12 18 2 14 0 20-24 62-32 84-20 22-26 22h-20s-20-4-30-14-42-38-44-92 36-108 42-116 74-128 186-176 114-34 134-32 66 24 76 50z" />
</font>
</defs>
</svg>
